# xmcd
#
# Track frame offsets:
# 150
# 33474
# 58595
# 75049
# 96615
# 120301
# 150181
# 164451
# 188053
# 206423
#
# Disc length: 2959 seconds
#
#
# Revision: 0
# Processed by: cddbd v1.5.2PL0 Copyright (c) Steve Scherf et al.
# Submitted via: FreeRIP 2.90 
#
DISCID=6f0b8d0a
DTITLE=Bettermen - Bettermen
DYEAR=1997
DGENRE=Blues
TTITLE0=Cold Cold Feeling
TTITLE1=It's You
TTITLE2=Rainy Day
TTITLE3=Lollipop Mama
TTITLE4=Lonely Avenue
TTITLE5=Baltic Love
TTITLE6=I Want You
TTITLE7=Masters Of War
TTITLE8=Summer In Her Heart
TTITLE9=Bettermen
EXTD=LABEL: Rockwerk Records
EXTT0=
EXTT1=
EXTT2=
EXTT3=
EXTT4=
EXTT5=
EXTT6=
EXTT7=
EXTT8=
EXTT9=
PLAYORDER=
